<!--?xml version="1.0" standalone="no"?-->
              <svg id="sw-js-blob-svg" viewBox="0 0 100 100" xmlns="http://www.w3.org/2000/svg" version="1.1">
                    <defs> 
                        <linearGradient id="sw-gradient" x1="0" x2="1" y1="1" y2="0">
                            <stop id="stop1" stop-color="rgba(248, 192.966, 55, 1)" offset="0%"></stop>
                            <stop id="stop2" stop-color="rgba(247.392, 251.272, 14.33, 1)" offset="100%"></stop>
                        </linearGradient>
                    </defs>
                <path fill="url(#sw-gradient)" d="M15.1,-27.2C19.9,-23.4,24.4,-20,28.8,-15.6C33.2,-11.1,37.5,-5.5,39.6,1.2C41.7,8,41.5,15.9,38.5,22.7C35.4,29.4,29.4,35,22.5,36.3C15.6,37.6,7.8,34.6,0.3,34.2C-7.3,33.7,-14.5,35.7,-18.8,32.9C-23.1,30.1,-24.4,22.5,-28.7,16.2C-33.1,9.9,-40.5,4.9,-41.4,-0.6C-42.4,-6.1,-37,-12.1,-31.8,-17C-26.6,-21.9,-21.8,-25.6,-16.5,-29.1C-11.3,-32.6,-5.6,-36,-0.2,-35.6C5.2,-35.2,10.3,-31,15.1,-27.2Z" width="100%" height="100%" transform="translate(50 50)" stroke-width="0" style="transition: all 0.3s ease 0s;"></path>
              </svg>